<svg preserveAspectRatio="none" overflow="visible" style="display: block;" width="28" height="30" viewBox="0 0 28 30" fill="none" xmlns="http://www.w3.org/2000/svg">
<g id="User / User_Circle" filter="url(#filter0_d_0_102)">
<path id="Vector" d="M19.2166 19.3323C17.9349 17.9008 16.0727 17 14 17C11.9273 17 10.0649 17.9008 8.7832 19.3323M14 21C9.02944 21 5 16.9706 5 12C5 7.02944 9.02944 3 14 3C18.9706 3 23 7.02944 23 12C23 16.9706 18.9706 21 14 21ZM14 14C12.3431 14 11 12.6569 11 11C11 9.34315 12.3431 8 14 8C15.6569 8 17 9.34315 17 11C17 12.6569 15.6569 14 14 14Z" stroke="white" stroke-width="2" stroke-linecap="round" stroke-linejoin="round"/>
</g>
<defs>
<filter id="filter0_d_0_102" x="-2" y="0" width="32" height="32" filterUnits="userSpaceOnUse" color-interpolation-filters="sRGB">
<feFlood flood-opacity="0" result="BackgroundImageFix"/>
<feColorMatrix in="SourceAlpha" type="matrix" values="0 0 0 0 0 0 0 0 0 0 0 0 0 0 0 0 0 0 127 0" result="hardAlpha"/>
<feOffset dy="4"/>
<feGaussianBlur stdDeviation="2"/>
<feComposite in2="hardAlpha" operator="out"/>
<feColorMatrix type="matrix" values="0 0 0 0 0 0 0 0 0 0 0 0 0 0 0 0 0 0 0.25 0"/>
<feBlend mode="normal" in2="BackgroundImageFix" result="effect1_dropShadow_0_102"/>
<feBlend mode="normal" in="SourceGraphic" in2="effect1_dropShadow_0_102" result="shape"/>
</filter>
</defs>
</svg>
