<svg preserveAspectRatio="none" overflow="visible" style="display: block;" width="31.6667" height="35" viewBox="0 0 31.6667 35" fill="none" xmlns="http://www.w3.org/2000/svg">
<g id="Container" opacity="0.2">
<path id="Icon" d="M23.3333 35C21.0278 35 19.0625 34.1875 17.4375 32.5625C15.8125 30.9375 15 28.9722 15 26.6667C15 24.3611 15.8125 22.3958 17.4375 20.7708C19.0625 19.1458 21.0278 18.3333 23.3333 18.3333C25.6389 18.3333 27.6042 19.1458 29.2292 20.7708C30.8542 22.3958 31.6667 24.3611 31.6667 26.6667C31.6667 28.9722 30.8542 30.9375 29.2292 32.5625C27.6042 34.1875 25.6389 35 23.3333 35V35M26.125 30.625L27.2917 29.4583L24.1667 26.3333V21.6667H22.5V27L26.125 30.625V30.625M3.33333 33.3333C2.41667 33.3333 1.63194 33.0069 0.979167 32.3542C0.326389 31.7014 0 30.9167 0 30V6.66667C0 5.75 0.326389 4.96528 0.979167 4.3125C1.63194 3.65972 2.41667 3.33333 3.33333 3.33333H10.2917C10.5972 2.36111 11.1944 1.5625 12.0833 0.9375C12.9722 0.3125 13.9444 0 15 0C16.1111 0 17.1042 0.3125 17.9792 0.9375C18.8542 1.5625 19.4444 2.36111 19.75 3.33333H26.6667C27.5833 3.33333 28.3681 3.65972 29.0208 4.3125C29.6736 4.96528 30 5.75 30 6.66667V17.0833C29.5 16.7222 28.9722 16.4167 28.4167 16.1667C27.8611 15.9167 27.2778 15.6944 26.6667 15.5V6.66667V6.66667V6.66667H23.3333V11.6667H6.66667V6.66667H3.33333V6.66667V6.66667V30V30V30H12.1667C12.3611 30.6111 12.5833 31.1944 12.8333 31.75C13.0833 32.3056 13.3889 32.8333 13.75 33.3333H3.33333V33.3333M15 6.66667C15.4722 6.66667 15.8681 6.50694 16.1875 6.1875C16.5069 5.86806 16.6667 5.47222 16.6667 5C16.6667 4.52778 16.5069 4.13194 16.1875 3.8125C15.8681 3.49306 15.4722 3.33333 15 3.33333C14.5278 3.33333 14.1319 3.49306 13.8125 3.8125C13.4931 4.13194 13.3333 4.52778 13.3333 5C13.3333 5.47222 13.4931 5.86806 13.8125 6.1875C14.1319 6.50694 14.5278 6.66667 15 6.66667V6.66667" fill="#745B00"/>
</g>
</svg>
